<?xml version="1.0" standalone="no"?>
<!DOCTYPE svg PUBLIC "-//W3C//DTD SVG 20010904//EN"
 "http://www.w3.org/TR/2001/REC-SVG-20010904/DTD/svg10.dtd">
<svg version="1.0" xmlns="http://www.w3.org/2000/svg"
 width="512.000000pt" height="512.000000pt" viewBox="0 0 512.000000 512.000000"
 preserveAspectRatio="xMidYMid meet">
<metadata>
Created by potrace 1.14, written by Peter Selinger 2001-2017
</metadata>
<g transform="translate(0.000000,512.000000) scale(0.100000,-0.100000)"
fill="#000000" stroke="none">
<path d="M1308 4025 c-2 -2 -34 -5 -73 -8 -465 -35 -834 -309 -1015 -750 -38
-95 -93 -298 -104 -387 -3 -25 -9 -70 -13 -100 -16 -127 -6 -472 18 -590 5
-25 11 -56 13 -70 24 -146 112 -369 202 -511 122 -194 329 -361 550 -444 162
-61 281 -80 499 -79 618 2 1053 334 1160 885 3 13 7 54 11 92 l5 67 -279 0
-280 0 -12 -67 c-48 -259 -206 -428 -446 -478 -212 -44 -419 -2 -564 114 -40
32 -59 51 -123 125 -10 11 -39 61 -63 111 -41 82 -57 127 -86 240 -21 85 -35
226 -35 365 -1 130 3 176 23 314 10 72 54 207 94 289 48 97 107 176 181 239
53 45 169 115 169 102 0 -4 6 -2 13 4 27 22 162 43 261 41 295 -5 488 -150
566 -423 11 -38 21 -70 23 -73 4 -3 260 -5 460 -4 l88 1 -6 58 c-16 146 -53
276 -111 381 -133 241 -371 422 -664 504 -50 14 -69 19 -135 31 -67 13 -319
29 -327 21z"/>
<path d="M2744 2575 l0 -1405 288 0 288 0 1 28 c0 15 0 295 0 622 0 327 2 602
5 610 3 14 68 16 556 15 l553 0 0 -635 0 -635 288 -3 c268 -2 287 -1 288 15 1
24 1 2741 0 2771 l-1 22 -290 0 -290 0 0 -525 0 -525 -47 -1 c-66 0 -957 0
-1015 0 l-46 1 -1 498 c0 273 0 509 0 525 l-1 27 -288 0 -288 0 0 -1405z"/>
</g>
</svg>
